# xmcd
#
# Track frame offsets:
#	150
#	10342
#	20735
#	32517
#	45844
#	57361
#	67409
#	75907
#	85695
#	95990
#	102682
#	114188
#	125582
#	136826
#
# Disc length: 1949 seconds
#
# Revision: 1
# Processed by: cddbd v1.4PL0 Copyright (c) Steve Scherf et al.
# Submitted via: audiograbber 1.80
#
DISCID=b5079b0e
DTITLE=Jackson Do Pandeiro - Como Tem Zé Na Paraíba
DYEAR=1900
DGENRE=
TTITLE0=Sebastiana
TTITLE1=São João Na Roça
TTITLE2=Chiclete Com Banana
TTITLE3=Samba Do Ziriguidum
TTITLE4=Canoeiro Novo
TTITLE5=Samambaia Trepadeira
TTITLE6=Balançaram A Roseira
TTITLE7=Como Tem Zé Na Paraíba
TTITLE8=Ai, Tertulina
TTITLE9=Forró Do Zé Lagoa
TTITLE10=Cabeça Feita
TTITLE11=Na Base Da Chinela
TTITLE12=Vamos Chegar Pra Lá
TTITLE13=Acenderam A Fogueira
EXTD=
EXTT0=
EXTT1=
EXTT2=
EXTT3=
EXTT4=
EXTT5=
EXTT6=
EXTT7=
EXTT8=
EXTT9=
EXTT10=
EXTT11=
EXTT12=
EXTT13=
PLAYORDER=
